<?xml version="1.0" encoding="utf-8"?>
<svg version="1.1" xmlns:xlink="http://www.w3.org/1999/xlink" width="39px" height="31px" xmlns="http://www.w3.org/2000/svg">
  <g transform="matrix(1 0 0 1 -69 -559 )">
    <path d="M 38.517578125 25.26015625  C 38.8391927083333 25.5669270833333  39 25.9302083333333  39 26.35  L 39 29.45  C 39 29.8697916666667  38.8391927083333 30.2330729166667  38.517578125 30.53984375  C 38.1959635416667 30.8466145833333  37.8151041666667 31  37.375 31  L 1.625 31  C 1.18489583333333 31  0.804036458333333 30.8466145833333  0.482421875 30.53984375  C 0.160807291666667 30.2330729166667  0 29.8697916666667  0 29.45  L 0 26.35  C 0 25.9302083333333  0.160807291666667 25.5669270833333  0.482421875 25.26015625  C 0.804036458333333 24.9533854166667  1.18489583333333 24.8  1.625 24.8  L 37.375 24.8  C 37.8151041666667 24.8  38.1959635416667 24.9533854166667  38.517578125 25.26015625  Z M 38.517578125 12.86015625  C 38.8391927083333 13.1669270833333  39 13.5302083333333  39 13.95  L 39 17.05  C 39 17.4697916666667  38.8391927083333 17.8330729166667  38.517578125 18.13984375  C 38.1959635416667 18.4466145833333  37.8151041666667 18.6  37.375 18  L 1.625 18  C 1.18489583333333 18.6  0.804036458333333 18.4466145833333  0.482421875 18.13984375  C 0.160807291666667 17.8330729166667  0 17.4697916666667  0 17.05  L 0 13.95  C 0 13.5302083333333  0.160807291666667 13.1669270833333  0.482421875 12.86015625  C 0.804036458333333 12.5533854166667  1.18489583333333 12.4  1.625 13  L 37.375 13  C 37.8151041666667 12.4  38.1959635416667 12.5533854166667  38.517578125 12.86015625  Z M 38.517578125 0.460156250000001  C 38.8391927083333 0.766927083333331  39 1.13020833333333  39 1.55  L 39 4.65  C 39 5.06979166666666  38.8391927083333 5.43307291666666  38.517578125 5.73984375  C 38.1959635416667 6.04661458333333  37.8151041666667 6.2  37.375 6.2  L 1.625 6.2  C 1.18489583333333 6.2  0.804036458333333 6.04661458333333  0.482421875 5.73984375  C 0.160807291666667 5.43307291666666  0 5.06979166666666  0 4.65  L 0 1.55  C 0 1.13020833333333  0.160807291666667 0.766927083333331  0.482421875 0.460156250000001  C 0.804036458333333 0.153385416666665  1.18489583333333 0  1.625 0  L 37.375 0  C 37.8151041666667 0  38.1959635416667 0.153385416666665  38.517578125 0.460156250000001  Z " fill-rule="nonzero" fill="#ffffff" stroke="none" transform="matrix(1 0 0 1 69 559 )" />
  </g>
</svg>